{
  "accessors": [
    {
      "bufferView": 2,
      "componentType": 5126,
      "count": 4932,
      "max": [
        0.0809805691242218,
        0.06502767652273178,
        0.0
      ],
      "min": [
        -0.0996001809835434,
        -0.07036799937486649,
        -0.007983569987118244
      ],
      "type": "VEC3"
    },
    {
      "bufferView": 2,
      "byteOffset": 59184,
      "componentType": 5126,
      "count": 4932,
      "max": [
        1.0,
        1.0,
        1.0
      ],
      "min": [
        -1.0,
        -1.0,
        -1.0
      ],
      "type": "VEC3"
    },
    {
      "bufferView": 1,
      "componentType": 5126,
      "count": 4932,
      "max": [
        1.0,
        0.0
      ],
      "min": [
        0.0,
        0.0
      ],
      "type": "VEC2"
    },
    {
      "bufferView": 0,
      "componentType": 5125,
      "count": 14790,
      "type": "SCALAR"
    },
    {
      "bufferView": 2,
      "byteOffset": 118368,
      "componentType": 5126,
      "count": 128,
      "max": [
        1.0,
        1.0,
        0.0
      ],
      "min": [
        -1.0,
        -1.0,
        -0.10141971707344055
      ],
      "type": "VEC3"
    },
    {
      "bufferView": 2,
      "byteOffset": 119904,
      "componentType": 5126,
      "count": 128,
      "max": [
        1.0,
        1.0,
        1.0
      ],
      "min": [
        -1.0,
        -1.0,
        -1.0
      ],
      "type": "VEC3"
    },
    {
      "bufferView": 1,
      "byteOffset": 39456,
      "componentType": 5126,
      "count": 128,
      "max": [
        1.0,
        1.0
      ],
      "min": [
        0.0,
        0.0
      ],
      "type": "VEC2"
    },
    {
      "bufferView": 0,
      "byteOffset": 59160,
      "componentType": 5125,
      "count": 372,
      "type": "SCALAR"
    }
  ],
  "asset": {
    "extras": {
      "author": "Suraj-456tyu (https://sketchfab.com/Suraj-456tyu)",
      "license": "CC-BY-4.0 (http://creativecommons.org/licenses/by/4.0/)",
      "source": "https://sketchfab.com/3d-models/deep-seek-9bfeddbb3236468ab6209327b080640b",
      "title": "Deep Seek"
    },
    "generator": "Sketchfab-0.9.0",
    "version": "2.0"
  },
  "bufferViews": [
    {
      "buffer": 0,
      "byteLength": 60648,
      "name": "floatBufferViews",
      "target": 34963
    },
    {
      "buffer": 0,
      "byteLength": 40480,
      "byteOffset": 60648,
      "byteStride": 8,
      "name": "floatBufferViews",
      "target": 34962
    },
    {
      "buffer": 0,
      "byteLength": 121440,
      "byteOffset": 101128,
      "byteStride": 12,
      "name": "floatBufferViews",
      "target": 34962
    }
  ],
  "buffers": [
    {
      "byteLength": 222568,
      "uri": "scene.bin"
    }
  ],
  "materials": [
    {
      "doubleSided": true,
      "name": "SVGMat.001",
      "pbrMetallicRoughness": {
        "baseColorFactor": [
          0.0742136,
          0.147027,
          0.991102,
          1.0
        ],
        "metallicFactor": 0.0,
        "roughnessFactor": 0.9528499957853372
      }
    },
    {
      "doubleSided": true,
      "name": "Material.001",
      "pbrMetallicRoughness": {
        "baseColorFactor": [
          0.8,
          0.8,
          0.8,
          1.0
        ],
        "metallicFactor": 0.0
      }
    }
  ],
  "meshes": [
    {
      "name": "Curve_SVGMat.001_0",
      "primitives": [
        {
          "attributes": {
            "NORMAL": 1,
            "POSITION": 0,
            "TEXCOORD_0": 2
          },
          "indices": 3,
          "material": 0,
          "mode": 4
        }
      ]
    },
    {
      "name": "Circle_Material.001_0",
      "primitives": [
        {
          "attributes": {
            "NORMAL": 5,
            "POSITION": 4,
            "TEXCOORD_0": 6
          },
          "indices": 7,
          "material": 1,
          "mode": 4
        }
      ]
    }
  ],
  "nodes": [
    {
      "children": [
        1
      ],
      "matrix": [
        1.0,
        0.0,
        0.0,
        0.0,
        0.0,
        2.220446049250313e-16,
        -1.0,
        0.0,
        0.0,
        1.0,
        2.220446049250313e-16,
        0.0,
        0.0,
        0.0,
        0.0,
        1.0
      ],
      "name": "Sketchfab_model"
    },
    {
      "children": [
        2
      ],
      "matrix": [
        0.009999999776482582,
        0.0,
        0.0,
        0.0,
        0.0,
        0.0,
        0.009999999776482582,
        0.0,
        0.0,
        -0.009999999776482582,
        0.0,
        0.0,
        0.0,
        0.0,
        0.0,
        1.0
      ],
      "name": "DeepSeek.fbx"
    },
    {
      "children": [
        3
      ],
      "name": "RootNode"
    },
    {
      "children": [
        4,
        5
      ],
      "matrix": [
        141.78654308365253,
        2.3457276369543664e-14,
        10.912260684021792,
        0.0,
        -4.769902936259739e-07,
        142.20585632324205,
        6.197689318488249e-06,
        0.0,
        -10.912260684021781,
        -6.216016758082332e-06,
        141.7865430836524,
        0.0,
        -7.855835437774658,
        0.3711816966533661,
        -0.003294646739959717,
        1.0
      ],
      "name": "Curve"
    },
    {
      "mesh": 0,
      "name": "Curve_SVGMat.001_0"
    },
    {
      "children": [
        6
      ],
      "matrix": [
        0.1061990113198273,
        0.008173350995455944,
        -1.0079857799133447e-09,
        0.0,
        -0.008173350995455944,
        0.1061990113198273,
        4.599494559092556e-11,
        0.0,
        6.451647693271504e-10,
        2.014358733206914e-11,
        0.06813637912273407,
        0.0,
        -0.007136698812246323,
        -0.0005842773243784904,
        -0.0039336197078228,
        1.0
      ],
      "name": "Circle"
    },
    {
      "mesh": 1,
      "name": "Circle_Material.001_0"
    }
  ],
  "scene": 0,
  "scenes": [
    {
      "name": "Sketchfab_Scene",
      "nodes": [
        0
      ]
    }
  ]
}
